<svg xmlns="http://www.w3.org/2000/svg" viewBox="0 0 48 48">
  <circle cx="24" cy="24" r="23" fill="#FFFFFF" stroke="#2A2A2A" stroke-width="1" />
  <g stroke="#2A2A2A" stroke-width="1" stroke-linecap="round" stroke-linejoin="round" fill="none">
    <path d="M22.4 33.5l1.6-19.5 1.6 19.5" />
    <ellipse cx="24" cy="15.8" rx="3.4" ry="2.4" />
    <path d="M24 13.2V7.6" />
    <circle cx="24" cy="6.5" r="0.9" fill="#2A2A2A" stroke="none" />
  </g>
  <path
    d="M8.8 34.2c0.3-1.6 1.3-2.9 2.9-3.3 1.7-0.45 3-1.6 4.1-2.9 1.15-1.35 2.6-2.05 4.4-2.05h7.6c1.75 0 3.2 0.7 4.35 2.05 1.1 1.3 2.4 2.45 4.1 2.9 1.6 0.4 2.6 1.7 2.9 3.3"
    stroke="#2A2A2A" stroke-width="1" stroke-linecap="round" stroke-linejoin="round" fill="none"
  />
  <path d="M8.8 34.2h30.4" stroke="#2A2A2A" stroke-width="1" stroke-linecap="round" />
  <circle cx="14.6" cy="34.2" r="1.7" stroke="#2A2A2A" stroke-width="1" fill="none" />
  <circle cx="33.4" cy="34.2" r="1.7" stroke="#2A2A2A" stroke-width="1" fill="none" />
  <path d="M11 39.4a13 13 0 0 1 26 0" stroke="#2A2A2A" stroke-width="1" fill="none" opacity="0.9" />
  <path d="M8.5 41.2a15.5 15.5 0 0 1 31 0" stroke="#4A5361" stroke-width="0.85" fill="none" opacity="0.65" />
  <path d="M6 43a18 18 0 0 1 36 0" stroke="#C9A24B" stroke-width="0.75" fill="none" opacity="0.8" />
</svg>
